<svg width="90" height="88" viewBox="0 0 90 88" fill="none" xmlns="http://www.w3.org/2000/svg">
<g clip-path="url(#clip0_67_764)">
<path d="M49.7663 46.495C45.8482 50.9002 44.5459 56.3499 43.4442 61.8951C43.2802 62.723 43.1688 63.5748 42.887 64.3644C42.5845 65.213 42.4492 66.4803 41.166 66.2765C39.8222 66.0616 39.7108 64.8118 39.386 63.6766C38.3655 60.1104 39.7586 56.7702 40.1629 53.3409C40.3253 51.9638 40.2203 50.7952 38.9975 49.8765C38.0996 49.1999 38.7603 48.3115 39.0389 47.6604C39.4784 46.6367 40.4718 45.9584 39.3988 45.1274C38.0534 44.0862 36.3834 44.0225 35.1001 45.1704C34.2134 45.9632 34.129 47.178 35.2912 48.06C36.2894 48.8178 36.8578 49.3193 35.5953 50.6248C34.6337 51.6183 34.3487 53.3186 33.9013 54.7467C33.4412 56.213 32.7678 56.5171 31.311 55.8818C29.5486 55.1113 27.6269 55.323 25.761 55.6446C21.6949 56.3435 17.6813 57.1571 13.9638 54.2691C12.3303 53.0002 10.9388 51.9128 11.8049 49.6091C12.6185 47.4486 14.4382 47.0649 16.4044 46.9169C19.665 47.1525 22.6199 48.224 25.4235 49.8336C27.0665 50.7777 28.9516 52.1389 30.7219 50.9432C32.3888 49.8176 31.6485 47.6827 31.3078 45.9791C30.4975 41.94 31.9765 40.1585 28.0839 40.9784C26.5921 41.2921 25.9967 41.5564 25.3758 39.9133C24.7803 38.3372 26.0412 37.8596 27.0013 37.1718C29.2318 35.5765 29.2923 32.8636 30.3048 30.6395C30.7347 29.6954 31.0818 26.4794 32.4191 26.1896C33.7628 25.8967 33.3568 29.1238 33.9634 29.8021C34.1608 30.025 34.328 30.3466 34.7372 30.0648C35.5364 29.5139 36.8275 26.5097 37.8321 27.25C38.9593 28.0826 38.192 31.4642 37.8385 32.5834C36.8482 35.7166 37.9993 37.8341 40.7043 39.3131C41.1102 39.5344 41.6547 39.501 42.1339 39.587C42.2167 39.0759 42.3282 38.568 42.3664 38.0538C42.3823 37.8309 42.2104 37.6 42.1881 37.3676C42.0464 35.8519 42.2183 34.2806 43.847 33.8173C45.022 33.4829 45.5155 34.8537 45.9533 35.7278C47.5709 38.9565 47.7524 40.3687 51.1992 41.6789C53.3597 42.5005 51.0639 45.035 49.7663 46.495Z" fill="#C6510F"/>
<path d="M59.0959 52.7598C58.9717 55.7704 57.9942 61.9731 56.4642 64.522C56.1999 64.9646 52.9776 66.8258 52.4792 66.6029C51.5686 66.1969 52.8008 62.5765 52.5811 61.6675C52.4936 61.3029 52.7642 60.6262 52.1736 60.6406C51.8153 60.6501 51.3823 61.1198 51.1451 61.486C50.8187 61.9891 50.6802 62.6084 50.4 63.1449C49.9606 63.9887 49.7218 65.1016 48.4752 65.1016C47.2286 65.1016 46.8624 64.0285 46.4723 63.1226C46.216 62.5304 46.1587 61.8537 46.0154 61.2328C46.6936 56.9024 48.2634 52.9795 50.6245 49.3766C51.1737 48.5392 52.0908 48.0075 53.1017 48.5042C54.1239 49.0073 53.7402 50.0087 53.5841 50.8477C53.4934 51.3381 53.2371 51.7982 53.1479 52.2885C52.9664 53.2947 53.6239 54.0462 54.3213 54.4442C54.9677 54.8136 55.0011 53.8026 55.3641 53.4587C55.6093 53.2263 56.4196 50.3319 56.5645 50.4067C57.5611 50.9146 59.1453 51.5626 59.0959 52.7598Z" fill="#C6510F"/>
<path d="M88.7021 41.6264C87.6116 40.297 86.002 39.5344 84.2873 39.5344C81.8928 39.5344 80.097 40.9625 79.1385 41.9528C79.0589 41.4863 78.8949 40.8447 78.5176 40.1665C77.5656 38.4486 75.8031 37.4233 73.8019 37.4233H73.7159C71.7497 37.4552 70.0414 38.4438 69.0862 40.0837C68.6977 39.5408 68.2201 39.0584 67.666 38.6524C68.0927 38.0092 68.4923 37.3596 68.876 36.7117C69.2072 36.1497 69.4125 35.9841 69.4539 35.9538C69.4746 35.9491 69.5304 35.9395 69.6322 35.9363C71.6844 35.9045 73.9054 35.7946 76.4224 35.6036C76.475 35.6004 76.5307 35.6004 76.588 35.5988C77.1866 35.5813 78.1881 35.5526 79.2834 35.1355C81.4375 34.3156 82.8703 32.3685 83.0232 30.0584C83.141 28.2832 82.5742 26.6275 81.4279 25.392C79.5206 23.3366 76.8539 23.3128 75.9783 23.3064C75.9416 23.3048 75.905 23.3048 75.8668 23.3048H75.7824C74.9179 23.3048 74.1872 22.703 73.9738 21.8656C73.934 21.7127 73.8879 21.5615 73.8353 21.4102C73.3593 20.0745 72.3356 19.0046 71.0253 18.4729C70.5429 18.277 70.0446 18.1513 69.5383 18.0955C69.4062 18.0812 69.325 17.9427 69.3696 17.8169C69.3696 17.8169 69.3696 17.8153 69.3696 17.8137C69.8217 16.5369 70.1035 14.507 68.9015 12.0616C68.9222 12.009 68.9556 11.9342 69.0129 11.8323C69.8997 10.2546 70.8056 7.87441 70.0828 5.50381C69.6275 4.00885 68.6165 2.80047 67.233 2.10314C66.4576 1.71149 65.5963 1.50452 64.7414 1.50452C63.646 1.50452 61.5716 1.84681 59.9699 4.13622C59.5226 4.77623 59.2089 5.43376 58.9781 5.91297C58.9176 6.03875 58.8555 6.1693 58.8205 6.23617C58.1343 7.54326 57.8843 8.80577 57.7028 9.72759C57.6917 9.7849 57.6789 9.84858 57.6662 9.91227C57.6169 9.94092 57.5691 9.97117 57.5213 10.003C57.1774 9.01911 56.6393 8.13233 55.9245 7.3936C54.619 6.04352 52.9298 5.30002 51.169 5.30002C48.5627 5.30002 46.7796 6.84593 45.8228 7.6754C45.7654 7.72476 45.7097 7.77411 45.654 7.82028C45.0108 8.37114 44.4615 9.0223 44.0142 9.74032C43.1385 9.25633 42.1371 8.99205 41.0593 8.99205C39.9814 8.99205 38.8893 9.26111 37.7828 9.79286C37.5965 9.88202 37.4166 9.97595 37.2447 10.0731C35.9232 8.09252 35.1909 6.86663 35.3183 5.57545L35.3995 4.74121C35.6414 2.28464 33.7119 0.157623 31.2441 0.157623H29.6107C29.0232 0.157623 28.4453 0.2627 27.9024 0.463302C27.3595 0.663903 26.85 0.960029 26.4042 1.34054C24.8217 2.69221 22.467 4.70459 22.467 7.82187C22.467 7.97153 22.4718 8.12277 22.4829 8.27721C22.6469 10.5714 23.9938 12.1268 25.4235 13.2572C25.0319 14.2586 24.7453 15.3365 24.5606 16.513C24.2931 18.2086 23.5544 19.8389 22.4814 21.1061C21.5866 22.1633 20.5295 22.8638 19.5822 23.0262C19.2781 23.0787 18.7734 23.0835 18.2401 23.0883C17.8118 23.0915 17.3262 23.0946 16.812 23.1249C15.6593 23.1902 14.8091 23.6153 14.4286 23.8206L13.2203 24.3492C10.7748 25.4223 10.1125 28.5841 11.9211 30.5471L12.7729 31.4706C12.9767 31.7412 13.1932 31.9864 13.4209 32.2093C14.7359 33.4877 17.4806 36.5477 15.4444 37.1208C15.4237 37.1272 15.4571 37.1638 15.4635 37.1845C14.911 37.4154 14.954 37.3787 13.9399 37.643C12.1838 38.1015 10.2256 38.3865 8.82931 38.3865C8.37079 38.3865 8.11447 38.3547 8.01576 38.3388C7.01912 37.9758 6.13393 37.9423 5.65949 37.9232L5.48118 37.9089L4.04035 37.7497C1.76527 37.5013 -0.173874 39.3864 0.0123987 41.6678L0.130212 43.1325V43.1755C0.125436 43.7486 0.112699 44.9411 0.759082 46.2355C1.10297 46.9248 1.09023 47.8689 0.71132 49.7189C0.041056 52.9843 0.669926 56.3085 2.48171 59.0803C2.7635 59.5102 3.07078 59.9209 3.39874 60.311C2.4626 61.2678 1.77642 62.5049 1.3577 63.9887C0.579177 66.7477 1.25263 69.6278 3.20769 71.8917C4.68195 73.5969 6.81852 74.9262 9.56167 75.8433C10.3482 76.1044 10.8067 76.3002 11.0662 76.4276C11.0837 76.7125 11.0869 77.2013 11.0296 78.0101V78.0212C10.977 78.4224 10.8704 79.2567 11.0932 80.2613C11.5502 82.323 13.1215 83.8896 15.1944 84.3513C15.5972 84.4405 16.008 84.4866 16.414 84.4866C18.7877 84.4866 21.4163 82.9009 21.94 79.3602C22.2855 77.0278 23.002 76.1935 23.6563 75.6857C23.9508 75.458 24.2183 75.2383 24.4794 75.0249C24.9077 74.6747 25.3121 74.3435 25.6289 74.1477C27.135 73.2116 28.6443 72.2022 30.0596 71.0336C30.2093 71.368 30.3733 71.6673 30.5341 71.9284C31.4033 73.3326 32.7248 74.4598 34.4617 75.2781C35.651 75.8401 36.8721 76.1251 38.0869 76.1251C38.4817 76.1251 38.9195 76.0948 39.3892 76.0136C39.3319 76.1633 39.2746 76.3129 39.2157 76.4658C38.8956 77.2937 38.5645 78.1486 38.2556 79.0418C37.4532 81.363 37.9117 83.0936 38.4387 84.138C39.1265 85.5008 40.3174 86.5054 41.7948 86.9671C42.3377 87.1374 42.8965 87.2234 43.4585 87.2234C45.3595 87.2234 47.1299 86.2236 48.1934 84.5487C48.5611 83.9708 48.8477 83.3181 49.069 82.5539C49.4224 81.3391 49.7186 80.0448 49.9526 78.7058V78.6963C49.9781 78.5578 50.0067 78.3906 50.0386 78.2171C51.282 77.9862 52.6368 77.6439 53.8627 76.5119C53.885 76.4912 53.9073 76.4706 53.9296 76.4499C54.3372 76.8829 54.7352 77.2093 55.0457 77.4353C56.1967 78.2712 57.5357 78.7138 58.916 78.7138C60.2963 78.7138 61.7005 78.2457 62.8405 77.3573C63.2146 77.0676 63.5999 76.7157 63.9661 76.2938C65.0136 77.2252 66.3653 77.7426 67.8109 77.7426C68.0338 77.7426 68.2583 77.7299 68.4812 77.706C68.7837 77.6726 69.0925 77.6551 69.3966 77.6551C71.573 77.6551 73.7828 78.5243 76.2394 79.5735C77.0529 79.9206 77.9094 80.0973 78.7851 80.0973C81.6572 80.0973 84.2157 78.198 85.1534 75.3704C85.6772 73.7895 85.5212 72.1576 84.714 70.7741C83.4196 68.5548 81.1668 68.1122 80.4265 67.9657C80.417 67.9641 80.4074 67.9625 80.3979 67.9609C79.1194 67.6186 78.524 67.0582 78.1387 65.8371C77.2678 63.086 75.6137 61.1468 73.9563 59.4592C73.7127 59.2125 73.5185 59.0023 73.3657 58.8256C73.4707 58.7301 73.5933 58.625 73.7318 58.5088C74.4785 57.8894 75.1838 57.2574 75.8668 56.6444C78.4635 54.3121 80.1686 52.868 82.3848 52.599C84.187 52.3793 85.5323 51.4718 86.3363 50.9289L86.4446 50.8557C87.2899 50.2873 89.5348 48.7796 89.9392 46.0285C90.1732 44.4444 89.7338 42.8794 88.7021 41.6232V41.6264ZM83.4578 46.7624C82.8719 47.1557 82.2208 47.6222 81.5553 47.7034C76.7202 48.2908 73.7239 51.9144 70.3487 54.7133C66.8047 57.6522 66.9639 59.6264 70.2038 62.922C71.4902 64.2307 72.6397 65.5585 73.2001 67.3289C74.1155 70.2233 76.0467 72 78.9968 72.7594C79.4729 72.882 80.5332 72.925 80.2355 73.8213C79.9091 74.8052 78.9125 75.45 77.9445 75.0377C74.6632 73.6367 71.444 72.3917 67.7074 72.804C66.5293 72.933 66.4051 71.3074 66.7315 70.2392C67.3269 68.2889 67.5992 66.3561 66.8047 64.4138C66.0883 62.6625 65.0391 61.3697 62.85 61.8649C60.8854 62.309 60.247 63.8741 60.1514 65.5362C60.0655 67.0359 60.5049 68.5627 60.6689 70.0832C60.809 71.3616 60.6736 72.613 59.5767 73.4663C59.0227 73.8962 58.3174 73.8834 57.714 73.4456C56.5518 72.6018 56.4642 71.5049 56.8638 70.201C57.1679 69.2155 54.6922 69.709 53.5396 69.3683C52.4442 69.0419 51.4874 69.4256 51.1514 70.6085C50.3331 73.4997 50.6913 72.9903 47.2509 73.6733C45.5235 74.0172 45.1557 76.1442 44.8564 77.862C44.6621 78.9797 44.4122 80.0925 44.097 81.1815C43.9489 81.6878 43.6512 82.4536 43.0366 82.2609C42.3313 82.0396 42.4953 81.2118 42.688 80.6577C43.3264 78.8125 44.1145 77.015 44.7115 75.1571C45.4884 72.7355 44.1543 70.7741 42.8504 69.026C42.0066 67.8956 41.0816 69.0754 40.4782 69.7743C39.3112 71.1275 37.9754 71.5924 36.334 70.8187C34.7228 70.0577 33.7596 68.9018 34.199 66.9706C34.605 65.1811 34.398 63.3853 34.1672 61.599C34.0812 60.9239 33.6402 60.4718 32.9795 60.3699C31.8873 60.2011 31.3556 61.0672 31.0149 61.8075C29.2827 65.568 26.159 67.867 22.7918 69.9574C21.9432 70.4859 21.1918 71.1737 20.3973 71.7899C18.1589 73.5268 17.2259 75.9372 16.8247 78.6406C16.7658 79.0418 16.6146 79.6658 16.0335 79.5369C15.5017 79.4191 15.6848 78.8412 15.715 78.4415C16.0478 73.8914 15.196 72.6018 10.8926 71.1642C7.1035 69.9001 5.20097 67.7173 5.87442 65.334C6.38229 63.5349 7.49038 62.7055 9.40246 63.3917C11.141 64.0142 12.8143 64.8389 14.7184 64.92C15.8647 64.9694 16.8597 64.7608 17.1431 63.5222C17.4265 62.282 16.8566 61.236 15.6991 60.8252C14.2376 60.3062 12.6901 60.0308 11.1713 59.6837C7.04619 58.7396 4.4718 54.812 5.31242 50.7156C5.77571 48.4548 6.03203 46.2179 4.94146 44.0336C4.7743 43.6977 4.85708 43.2344 4.82365 42.83C5.25829 42.8778 5.72795 42.8332 6.1196 42.9876C9.10155 44.1642 19.5854 42.0833 21.0501 39.2064C21.9783 37.3819 20.3989 35.6179 20.4944 33.709C20.6218 31.1999 19.4962 29.3021 16.7706 28.7592C16.5939 28.7242 16.4649 28.4472 16.3137 28.2832C16.4952 28.2036 16.6751 28.0635 16.8613 28.054C17.971 27.9903 19.103 28.0794 20.1888 27.8916C24.5495 27.1417 28.3657 22.5916 29.2031 17.2852C29.3894 16.1102 29.7078 15.0037 30.3303 13.9338C31.0197 12.7462 31.2935 11.3849 29.8065 10.4456C26.3963 8.28994 26.3405 7.69132 29.3782 5.09465H30.1743C32.0083 5.09465 31.7838 11.1079 33.5526 13.781C34.0462 14.5261 33.8504 15.7313 33.9523 16.7279C34.035 17.5526 34.4792 18.1353 35.2211 18.4044C35.9965 18.6862 36.2719 17.9634 36.6206 17.5001C37.5233 16.3013 38.2333 14.9416 39.6869 14.2443C40.8842 13.6696 41.7821 13.8224 42.118 15.2075C42.3616 16.201 42.5335 17.231 42.5749 18.2516C42.7373 22.2397 42.8249 26.231 42.9698 30.2208C42.9905 30.7796 43.1783 31.4212 43.8502 31.4706C44.4759 31.5151 44.5348 30.8735 44.6001 30.4277C45.014 27.6384 46.0679 25.1484 47.8877 22.9721C48.7984 21.8847 49.4813 20.6301 49.6899 19.2164C49.8364 18.2229 51.1339 16.8792 48.6471 16.5687C46.9356 16.3538 46.9229 13.0343 48.6312 11.5728C49.6167 10.7306 50.8521 9.48877 52.1449 10.8245C53.417 12.1412 52.7419 15.0817 50.9222 16.7248C50.0529 17.5112 52.0319 17.3329 52.4378 18.1178C53.5093 20.1907 52.9903 21.9149 51.7771 23.6758C50.7168 25.2121 49.4145 26.6291 49.0754 28.5714C48.7235 30.5806 49.3381 32.3557 51.231 33.0228C53.1845 33.7106 54.3101 32.1472 54.8419 30.5153C55.4262 28.7179 55.7812 26.8281 56.055 24.951C56.3655 22.8097 57.3908 21.1953 59.1102 19.9599C61.0605 18.5588 61.6432 17.7087 59.6101 16.5353C58.2951 15.7759 59.3618 14.3749 60.2438 14.0007C62.616 12.9977 61.9489 10.4583 62.9599 8.53034C63.4216 7.64834 63.9629 6.09925 64.7764 6.51C65.5788 6.91439 65.0232 8.44597 64.4771 9.41713C63.6062 10.9694 63.42 12.5965 64.2256 14.2077C65.0312 15.8189 64.4819 16.8792 63.0602 17.5256C61.7451 18.1226 60.7405 18.441 61.3885 20.3881C62.1495 22.6696 60.5192 24.8029 59.4971 26.8488C58.7631 28.3167 57.9735 29.8435 59.0051 31.4976C59.5496 32.3685 60.2645 32.6519 61.0478 31.7253C63.326 29.0299 65.5947 26.3266 67.8794 23.636C68.1564 23.3096 68.4286 22.8415 68.9397 23.0485C69.0129 23.0771 68.8999 23.8429 68.7152 24.1804C68.2312 25.0593 67.5005 25.833 67.1613 26.7548C66.6009 28.28 67.8873 28.6239 68.919 28.8038C71.21 29.2034 73.4214 28.2211 75.7012 28.2402C76.7584 28.2498 77.954 28.3899 77.8665 29.7336C77.7964 30.786 76.5976 30.6236 75.8254 30.6809C73.6618 30.8465 71.4902 30.9675 69.3186 31.0025C66.9751 31.0407 65.512 32.3096 64.3943 34.1978C62.8341 36.8358 61.1146 39.3036 58.3015 40.832C56.1378 42.0069 56.0964 45.6926 56.0964 45.6926C56.0964 45.6926 56.1983 46.3835 56.8606 47.5839C57.4401 48.6347 59.0736 49.6091 59.5926 48.6777C60.1355 47.7049 60.29 46.5953 60.0718 45.5111C59.9015 44.672 59.7805 43.9476 60.6322 43.4239C61.7801 42.7202 63.1573 41.8525 64.3195 42.5068C65.5852 43.2201 65.1346 44.8328 64.7812 46.054C64.2017 48.052 62.936 49.8081 62.7195 51.9526C62.6001 53.126 62.7083 54.2436 63.8451 54.7515C64.8258 55.1893 65.5088 54.328 66.1058 53.6689C67.4161 52.2217 68.6643 50.8015 70.5047 49.8781C73.1921 48.5312 72.6238 45.6957 72.9899 43.3236C73.0488 42.9415 72.9326 42.3683 73.5551 42.3588C74.141 42.3492 74.0152 42.9176 74.106 43.2583C74.5804 45.0334 74.9609 46.8436 77.1421 47.3738C79.3168 47.9024 80.9376 47.0522 82.3593 45.4856C82.9659 44.8169 84.0644 44.0368 84.6535 44.7564C85.2601 45.4967 84.1775 46.28 83.4578 46.7624Z" fill="#C6510F"/>
</g>
<defs>
<clipPath id="clip0_67_764">
<rect width="90" height="87.0658" fill="white" transform="translate(0 0.157623)"/>
</clipPath>
</defs>
</svg>
