<svg style='display: none;'>
  <symbol id='logo' width="90" height="88" viewBox="0 0 90 88"
    xmlns="http://www.w3.org/2000/svg">
    <path d="M49.7667 47.1494C45.8486 51.5547 44.5462 57.0043 43.4445 62.5495C43.2806 63.3774 43.1691 64.2292 42.8873 65.0188C42.5848 65.8674 42.4495 67.1347 41.1663 66.9309C39.8226 66.716 39.7111 65.4662 39.3863 64.3311C38.3658 60.7648 39.7589 57.4246 40.1633 53.9953C40.3257 52.6182 40.2206 51.4496 38.9979 50.531C38.0999 49.8543 38.7606 48.9659 39.0393 48.3148C39.4787 47.2911 40.4721 46.6129 39.3991 45.7818C38.0538 44.7406 36.3837 44.6769 35.1005 45.8248C34.2137 46.6176 34.1293 47.8324 35.2915 48.7144C36.2897 49.4722 36.8581 49.9737 35.5956 51.2792C34.634 52.2727 34.349 53.973 33.9016 55.4011C33.4415 56.8674 32.7681 57.1715 31.3113 56.5363C29.5489 55.7657 27.6273 55.9774 25.7614 56.299C21.6952 56.998 17.6816 57.8115 13.9641 54.9235C12.3306 53.6546 10.9391 52.5672 11.8052 50.2635C12.6188 48.103 14.4385 47.7194 16.4047 47.5713C19.6653 47.8069 22.6202 48.8784 25.4238 50.488C27.0669 51.4321 28.9519 52.7933 30.7223 51.5976C32.3892 50.4721 31.6488 48.3371 31.3081 46.6336C30.4978 42.5945 31.9768 40.8129 28.0842 41.6328C26.5924 41.9465 25.997 42.2108 25.3761 40.5678C24.7806 38.9916 26.0416 38.514 27.0016 37.8262C29.2321 36.2309 29.2926 33.518 30.3051 31.2939C30.735 30.3498 31.0821 27.1338 32.4194 26.8441C33.7631 26.5511 33.3571 29.7783 33.9637 30.4565C34.1611 30.6794 34.3283 31.001 34.7375 30.7192C35.5367 30.1683 36.8279 27.1641 37.8325 27.9044C38.9597 28.737 38.1923 32.1186 37.8388 33.2378C36.8486 36.371 37.9996 38.4885 40.7046 39.9675C41.1105 40.1888 41.655 40.1554 42.1343 40.2414C42.217 39.7303 42.3285 39.2224 42.3667 38.7082C42.3826 38.4853 42.2107 38.2545 42.1884 38.022C42.0467 36.5064 42.2186 34.935 43.8473 34.4717C45.0223 34.1374 45.5158 35.5081 45.9536 36.3822C47.5712 39.6109 47.7527 41.0231 51.1995 42.3334C53.36 43.1549 51.0642 45.6895 49.7667 47.1494Z" />
    <path d="M59.0962 53.4142C58.9721 56.4248 57.9945 62.6275 56.4645 65.1764C56.2003 65.619 52.9779 67.4802 52.4796 67.2573C51.5689 66.8513 52.8012 63.2309 52.5815 62.3218C52.4939 61.9573 52.7646 61.2806 52.1739 61.295C51.8157 61.3045 51.3826 61.7742 51.1454 62.1403C50.819 62.6434 50.6805 63.2628 50.4003 63.7993C49.9609 64.6431 49.7221 65.7559 48.4755 65.7559C47.2289 65.7559 46.8627 64.6829 46.4727 63.777C46.2163 63.1847 46.159 62.5081 46.0157 61.8872C46.694 57.5568 48.2638 53.6339 50.6248 50.031C51.1741 49.1936 52.0911 48.6618 53.1021 49.1586C54.1242 49.6617 53.7405 50.6631 53.5845 51.5021C53.4937 51.9925 53.2374 52.4526 53.1482 52.9429C52.9667 53.9491 53.6243 54.7006 54.3216 55.0986C54.968 55.468 55.0014 54.457 55.3644 54.1131C55.6096 53.8807 56.42 50.9863 56.5648 51.0611C57.5615 51.569 59.1456 52.2169 59.0962 53.4142Z" />
    <path d="M88.7025 42.2808C87.6119 40.9514 86.0023 40.1888 84.2876 40.1888C81.8931 40.1888 80.0973 41.6169 79.1389 42.6072C79.0593 42.1407 78.8953 41.4991 78.518 40.8209C77.5659 39.103 75.8035 38.0777 73.8022 38.0777H73.7163C71.75 38.1096 70.0417 39.0983 69.0865 40.7381C68.698 40.1952 68.2204 39.7128 67.6664 39.3068C68.093 38.6636 68.4927 38.0141 68.8763 37.3661C69.2075 36.8041 69.4129 36.6385 69.4543 36.6083C69.475 36.6035 69.5307 36.5939 69.6326 36.5907C71.6848 36.5589 73.9057 36.449 76.4228 36.258C76.4753 36.2548 76.531 36.2548 76.5884 36.2532C77.187 36.2357 78.1884 36.2071 79.2837 35.7899C81.4378 34.97 82.8707 33.0229 83.0235 30.7128C83.1413 28.9376 82.5746 27.2819 81.4283 26.0464C79.521 23.9911 76.8542 23.9672 75.9786 23.9608C75.942 23.9592 75.9054 23.9592 75.8671 23.9592C75.2558 23.9592 74.6747 24.0022 74.1254 24.0675C74.1573 23.351 74.0617 22.6983 73.8357 22.0646C73.3596 20.7289 72.3359 19.659 71.0257 19.1273C70.4589 18.898 69.8714 18.7643 69.2744 18.7277C69.3094 18.6401 69.3412 18.5541 69.3715 18.4697C69.8236 17.1929 70.1054 15.163 68.9034 12.7176C68.9241 12.665 68.9575 12.5902 69.0149 12.4883C69.9016 10.9106 70.8075 8.53042 70.0847 6.15982C69.6294 4.66486 68.6184 3.45647 67.2349 2.75914C66.4596 2.36749 65.5983 2.16052 64.7433 2.16052C63.648 2.16052 61.5735 2.50282 59.9719 4.79222C59.5245 5.43224 59.2109 6.08977 58.98 6.56898C58.9195 6.69475 58.8574 6.8253 58.8224 6.89217C58.1362 8.19927 57.8863 9.46178 57.7048 10.3836C57.6936 10.4409 57.6809 10.5046 57.6681 10.5683C57.6188 10.5969 57.571 10.6272 57.5233 10.659C57.1794 9.67512 56.6412 8.78833 55.9264 8.04961C54.6209 6.69953 52.9317 5.95603 51.1709 5.95603C48.5647 5.95603 46.7815 7.50194 45.8247 8.33141C45.7674 8.38076 45.7117 8.43012 45.6559 8.47629C45.0127 9.02714 44.4635 9.6783 44.0161 10.3963C43.1405 9.91234 42.139 9.64805 41.0612 9.64805C39.9834 9.64805 38.8912 9.91711 37.7847 10.4489C37.5984 10.538 37.4185 10.632 37.2466 10.7291C35.9252 8.74853 35.1928 7.52263 35.3202 6.23146L35.4014 5.39721C35.6434 2.94064 33.7138 0.813629 31.2461 0.813629H29.6126C29.0251 0.813629 28.4472 0.918706 27.9043 1.11931C27.3614 1.31991 26.8519 1.61603 26.4062 1.99654C24.8236 3.34821 22.469 5.3606 22.469 8.47788C22.469 8.62753 22.4737 8.77878 22.4849 8.93321C22.6489 11.2274 23.9957 12.7828 25.4254 13.9132C25.0338 14.9146 24.7472 15.9925 24.5625 17.169C24.2951 18.8646 23.5563 20.4949 22.4833 21.7622C21.5885 22.8193 20.5314 23.5198 19.5841 23.6822C19.28 23.7347 18.7753 23.7395 18.242 23.7443C17.8137 23.7475 17.3281 23.7507 16.8139 23.7809C15.6612 23.8462 14.8111 24.2713 14.4306 24.4766L13.2222 25.0052C10.7767 26.0783 10.1144 29.2401 11.923 31.2032L12.7748 32.1266C12.9786 32.3972 13.1951 32.6424 13.4228 32.8653C14.7378 34.1437 18.2913 36.8964 16.2551 37.4696C16.2344 37.4759 16.2678 37.5126 16.2742 37.5332C15.7217 37.7641 14.9559 38.0348 13.9418 38.299C12.1857 38.7576 10.2275 39.0425 8.83123 39.0425C8.37272 39.0425 8.11639 39.0107 8.01768 38.9948C7.02104 38.6318 6.13585 38.5983 5.66141 38.5792L5.4831 38.5649L4.04227 38.4057C1.7672 38.1573 -0.171951 40.0424 0.0143213 42.3238L0.132135 43.7885V43.8315C0.127359 44.4046 0.114622 45.5971 0.761005 46.8915C1.10489 47.5808 1.09216 48.5249 0.713242 50.3749C0.0429786 53.6403 0.671848 56.9645 2.48363 59.7363C2.76543 60.1662 3.0727 60.5769 3.40067 60.967C2.46452 61.9238 1.77834 63.1609 1.35962 64.6447C0.5811 67.4038 1.25455 70.2838 3.20962 72.5478C4.68388 74.2529 6.82044 75.5822 9.56359 76.4993C10.3501 76.7604 10.8086 76.9562 11.0681 77.0836C11.0856 77.3686 11.0888 77.8573 11.0315 78.6661V78.6772C10.9789 79.0784 10.8723 79.9127 11.0952 80.9173C11.5521 82.979 13.1235 84.5456 15.1963 85.0073C15.5991 85.0965 16.0099 85.1427 16.4159 85.1427C18.7897 85.1427 21.4182 83.557 21.942 80.0162C22.2875 77.6838 23.0039 76.8495 23.6582 76.3417C23.9528 76.114 24.2202 75.8943 24.4813 75.681C24.9096 75.3307 25.314 74.9995 25.6308 74.8037C27.1369 73.8676 28.6462 72.8582 30.0616 71.6896C30.2112 72.024 30.3752 72.3233 30.536 72.5844C31.4053 73.9886 32.7267 75.1158 34.4636 75.9341C35.6529 76.4961 36.874 76.7811 38.0888 76.7811C38.4836 76.7811 38.9215 76.7508 39.3911 76.6696C39.3338 76.8193 39.2765 76.9689 39.2176 77.1218C38.8976 77.9497 38.5664 78.8046 38.2576 79.6978C37.4552 82.019 37.9137 83.7496 38.4406 84.794C39.1284 86.1568 40.3193 87.1614 41.7967 87.6231C42.3396 87.7935 42.8985 87.8794 43.4605 87.8794C45.3614 87.8794 47.1318 86.8796 48.1953 85.2048C48.5631 84.6268 48.8496 83.9741 49.0709 83.2099C49.4244 81.9951 49.7205 80.7008 49.9545 79.3618V79.3523C49.98 79.2138 50.0087 79.0466 50.0405 78.8731C51.2839 78.6422 52.6388 78.2999 53.8647 77.168C53.887 77.1473 53.9092 77.1266 53.9315 77.1059C54.3391 77.5389 54.7371 77.8653 55.0476 78.0914C56.1987 78.9272 57.5376 79.3698 58.9179 79.3698C60.2982 79.3698 61.7025 78.9017 62.8424 78.0134C63.2165 77.7236 63.6018 77.3717 63.968 76.9498C65.0156 77.8812 66.3672 78.3986 67.8128 78.3986C68.0357 78.3986 68.2602 78.3859 68.4831 78.362C68.7856 78.3286 69.0945 78.3111 69.3985 78.3111C71.5749 78.3111 73.7847 79.1803 76.2413 80.2295C77.0548 80.5766 77.9114 80.7533 78.787 80.7533C81.6591 80.7533 84.2176 78.854 85.1553 76.0264C85.6791 74.4455 85.5231 72.8136 84.7159 71.4301C83.4215 69.2108 81.1688 68.7682 80.4284 68.6217C80.4189 68.6201 80.4093 68.6185 80.3998 68.6169C79.1213 68.2746 78.5259 67.7142 78.1406 66.4931C77.2698 63.742 75.6156 61.8028 73.9583 60.1152C73.7147 59.8685 73.5204 59.6583 73.3676 59.4816C73.4727 59.3861 73.5953 59.281 73.7338 59.1648C74.4805 58.5455 75.1857 57.9134 75.8687 57.3004C78.4654 54.9681 80.1705 53.524 82.3867 53.255C84.1889 53.0353 85.5342 52.1278 86.3382 51.5849L86.4465 51.5117C87.2919 50.9433 89.5367 49.4356 89.9411 46.6845C90.1751 45.1004 89.7357 43.5354 88.704 42.2792L88.7025 42.2808ZM83.4582 47.4169C82.8723 47.8101 82.2211 48.2766 81.5556 48.3578C76.7205 48.9452 73.7242 52.5688 70.349 55.3677C66.8051 58.3066 66.9643 60.2808 70.2041 63.5764C71.4905 64.8851 72.64 66.2129 73.2004 67.9833C74.1159 70.8777 76.0471 72.6544 78.9972 73.4138C79.4732 73.5364 80.5335 73.5794 80.2358 74.4758C79.9094 75.4597 78.9128 76.1045 77.9448 75.6921C74.6635 74.2911 71.4444 73.0461 67.7078 73.4584C66.5296 73.5874 66.4054 71.9619 66.7318 70.8936C67.3273 68.9433 67.5995 67.0105 66.8051 65.0682C66.0886 63.3169 65.0394 62.0241 62.8503 62.5193C60.8857 62.9635 60.2473 64.5285 60.1518 66.1906C60.0658 67.6903 60.5052 69.2171 60.6692 70.7376C60.8093 72.016 60.674 73.2674 59.577 74.1207C59.023 74.5506 58.3177 74.5378 57.7143 74.1C56.5521 73.2562 56.4645 72.1593 56.8641 70.8554C57.1682 69.8699 54.6926 70.3634 53.5399 70.0227C52.4445 69.6964 51.4877 70.08 51.1518 71.263C50.3335 74.1542 50.6917 73.6447 47.2512 74.3277C45.5238 74.6716 45.156 76.7986 44.8567 78.5164C44.6625 79.6341 44.4125 80.7469 44.0973 81.8359C43.9492 82.3422 43.6515 83.108 43.037 82.9154C42.3317 82.6941 42.4957 81.8662 42.6883 81.3121C43.3267 79.4669 44.1148 77.6695 44.7118 75.8115C45.4888 73.39 44.1546 71.4285 42.8507 69.6804C42.0069 68.5501 41.0819 69.7298 40.4785 70.4287C39.3115 71.782 37.9758 72.2469 36.3343 71.4731C34.7232 70.7121 33.7599 69.5562 34.1994 67.6251C34.6053 65.8356 34.3984 64.0397 34.1675 62.2534C34.0815 61.5784 33.6405 61.1262 32.9798 61.0243C31.8877 60.8556 31.3559 61.7216 31.0152 62.462C29.283 66.2224 26.1594 68.5214 22.7921 70.6118C21.9436 71.1404 21.1921 71.8281 20.3977 72.4443C18.1592 74.1812 17.2262 76.5916 16.825 79.295C16.7661 79.6962 16.6149 80.3203 16.0338 80.1913C15.502 80.0735 15.6851 79.4956 15.7154 79.096C16.0481 74.5458 15.1963 73.2562 10.893 71.8186C7.10383 70.5545 5.2013 68.3717 5.87475 65.9884C6.38262 64.1894 7.49071 63.3599 9.40279 64.0461C11.1413 64.6686 12.8146 65.4933 14.7187 65.5745C15.865 65.6238 16.8601 65.4153 17.1435 64.1766C17.4268 62.9364 16.8569 61.8904 15.6994 61.4796C14.2379 60.9606 12.6904 60.6852 11.1716 60.3381C7.04652 59.394 4.47213 55.4664 5.31275 51.37C5.77604 49.1092 6.03237 46.8724 4.94179 44.688C4.77463 44.3521 4.85741 43.8888 4.82398 43.4844C5.25862 43.5322 5.72828 43.4876 6.11993 43.642C9.10189 44.8186 19.5857 42.7377 21.0504 39.8609C21.9786 38.0363 20.3993 36.2723 20.4948 34.3634C20.6221 31.8543 19.4965 29.9566 16.7709 29.4137C16.5942 29.3786 16.4652 29.1016 16.314 28.9376C16.4955 28.858 16.6754 28.7179 16.8617 28.7084C17.9713 28.6447 19.1033 28.7339 20.1891 28.546C24.5498 27.7961 28.366 23.246 29.2034 17.9396C29.3897 16.7646 29.7081 15.6581 30.3306 14.5883C31.02 13.4006 31.2938 12.0394 29.8068 11.1C26.3966 8.94436 26.3409 8.34574 29.3786 5.74906H30.1746C32.0087 5.74906 31.7842 11.7623 33.553 14.4354C34.0465 15.1805 33.8507 16.3857 33.9526 17.3824C34.0354 18.207 34.4796 18.7897 35.2215 19.0588C35.9968 19.3406 36.2722 18.6178 36.6209 18.1545C37.5236 16.9557 38.2337 15.596 39.6872 14.8987C40.8845 14.324 41.7824 14.4768 42.1183 15.8619C42.3619 16.8554 42.5339 17.8855 42.5753 18.906C42.7377 22.8941 42.8252 26.8855 42.9701 30.8752C42.9908 31.434 43.1787 32.0756 43.8505 32.125C44.4762 32.1695 44.5351 31.5279 44.6004 31.0822C45.0143 28.2928 46.0683 25.8028 47.888 23.6265C48.7987 22.5391 49.4817 21.2845 49.6902 19.8708C49.8367 18.8773 51.1343 17.5336 48.6474 17.2231C46.936 17.0082 46.9232 13.6887 48.6315 12.2272C49.617 11.385 50.8525 10.1432 52.1452 11.4789C53.4173 12.7956 52.7423 15.7361 50.9225 17.3792C50.0532 18.1657 52.0322 17.9873 52.4382 18.7722C53.5096 20.8451 52.9906 22.5693 51.7775 24.3302C50.7171 25.8665 49.4148 27.2835 49.0757 29.2258C48.7239 31.235 49.3384 33.0102 51.2314 33.6772C53.1849 34.365 54.3105 32.8016 54.8422 31.1697C55.4265 29.3723 55.7815 27.4825 56.0554 25.6054C56.3658 23.4641 57.3911 21.8497 59.1106 20.6143C61.0608 19.2132 61.6436 18.3631 59.6105 17.1897C58.2954 16.4303 59.3621 15.0293 60.2441 14.6551C62.6163 13.6521 61.9492 11.1128 62.9602 9.18476C63.4219 8.30275 63.9632 6.75366 64.7767 7.16442C65.5792 7.5688 65.0235 9.10038 64.4774 10.0715C63.6066 11.6238 63.4203 13.2509 64.2259 14.8621C65.0315 16.4733 64.4822 17.5336 63.0605 18.18C61.7454 18.777 60.7408 19.0954 61.3888 21.0425C62.1498 23.324 60.5195 25.4574 59.4974 27.5032C58.7635 28.9711 57.9738 30.4979 59.0055 32.152C59.55 33.0229 60.2648 33.3063 61.0481 32.3797C63.3264 29.6843 65.5951 26.981 67.8797 24.2904C68.1567 23.964 68.429 23.4959 68.94 23.7029C69.0133 23.7316 68.9002 24.4973 68.7155 24.8349C68.2316 25.7137 67.5008 26.4874 67.1617 27.4092C66.6013 28.9345 67.8877 29.2783 68.9193 29.4582C71.2103 29.8579 73.4217 28.8755 75.7016 28.8946C76.7587 28.9042 77.9544 29.0443 77.8668 30.388C77.7967 31.4404 76.5979 31.278 75.8258 31.3353C73.6621 31.5009 71.4905 31.6219 69.3189 31.6569C66.9754 31.6951 65.5123 32.964 64.3947 34.8522C62.8344 37.4903 61.115 39.958 58.3018 41.4864C56.1382 42.6613 56.0968 46.347 56.0968 46.347C56.0968 46.347 56.1987 47.0379 56.861 48.2384C57.4405 49.2891 59.0739 50.2635 59.593 49.3321C60.1359 48.3594 60.2903 47.2497 60.0722 46.1655C59.9018 45.3265 59.7808 44.6021 60.6326 44.0783C61.7805 43.3746 63.1576 42.5069 64.3198 43.1612C65.5855 43.8745 65.135 45.4873 64.7815 46.7084C64.202 48.7064 62.9363 50.4625 62.7198 52.607C62.6004 53.7804 62.7086 54.898 63.8454 55.4059C64.8261 55.8437 65.5091 54.9824 66.1061 54.3233C67.4164 52.8761 68.6646 51.4559 70.505 50.5325C73.1925 49.1856 72.6241 46.3502 72.9903 43.978C73.0492 43.5959 72.933 43.0227 73.5555 43.0132C74.1413 43.0036 74.0156 43.572 74.1063 43.9127C74.5807 45.6879 74.9613 47.498 77.1424 48.0282C79.3172 48.5568 80.9379 47.7066 82.3596 46.14C82.9662 45.4713 84.0647 44.6912 84.6538 45.4108C85.2604 46.1511 84.1778 46.9345 83.4582 47.4169Z" />
  </symbol>

  <symbol id='instagram' width="24" height="24" viewBox="0 0 24 24"
    xmlns="http://www.w3.org/2000/svg">
    <path d="M7.8 2H16.2C19.4 2 22 4.6 22 7.8V16.2C22 17.7383 21.3889 19.2135 20.3012 20.3012C19.2135 21.3889 17.7383 22 16.2 22H7.8C4.6 22 2 19.4 2 16.2V7.8C2 6.26174 2.61107 4.78649 3.69878 3.69878C4.78649 2.61107 6.26174 2 7.8 2ZM7.6 4C6.64522 4 5.72955 4.37928 5.05442 5.05442C4.37928 5.72955 4 6.64522 4 7.6V16.4C4 18.39 5.61 20 7.6 20H16.4C17.3548 20 18.2705 19.6207 18.9456 18.9456C19.6207 18.2705 20 17.3548 20 16.4V7.6C20 5.61 18.39 4 16.4 4H7.6ZM17.25 5.5C17.5815 5.5 17.8995 5.6317 18.1339 5.86612C18.3683 6.10054 18.5 6.41848 18.5 6.75C18.5 7.08152 18.3683 7.39946 18.1339 7.63388C17.8995 7.8683 17.5815 8 17.25 8C16.9185 8 16.6005 7.8683 16.3661 7.63388C16.1317 7.39946 16 7.08152 16 6.75C16 6.41848 16.1317 6.10054 16.3661 5.86612C16.6005 5.6317 16.9185 5.5 17.25 5.5ZM12 7C13.3261 7 14.5979 7.52678 15.5355 8.46447C16.4732 9.40215 17 10.6739 17 12C17 13.3261 16.4732 14.5979 15.5355 15.5355C14.5979 16.4732 13.3261 17 12 17C10.6739 17 9.40215 16.4732 8.46447 15.5355C7.52678 14.5979 7 13.3261 7 12C7 10.6739 7.52678 9.40215 8.46447 8.46447C9.40215 7.52678 10.6739 7 12 7ZM12 9C11.2044 9 10.4413 9.31607 9.87868 9.87868C9.31607 10.4413 9 11.2044 9 12C9 12.7956 9.31607 13.5587 9.87868 14.1213C10.4413 14.6839 11.2044 15 12 15C12.7956 15 13.5587 14.6839 14.1213 14.1213C14.6839 13.5587 15 12.7956 15 12C15 11.2044 14.6839 10.4413 14.1213 9.87868C13.5587 9.31607 12.7956 9 12 9Z" />
  </symbol>

  <symbol id='tiktok' width="24" height="24" viewBox="0 0 24 24"
    xmlns="http://www.w3.org/2000/svg">
    <path d="M16.6 5.82C15.9166 5.03953 15.5399 4.0374 15.54 3H12.45V15.4C12.4267 16.0712 12.1435 16.7071 11.6603 17.1735C11.1771 17.6399 10.5316 17.9004 9.86 17.9C8.44 17.9 7.26 16.74 7.26 15.3C7.26 13.58 8.92 12.29 10.63 12.82V9.66C7.18 9.2 4.16 11.88 4.16 15.3C4.16 18.63 6.92 21 9.85 21C12.99 21 15.54 18.45 15.54 15.3V9.01C16.793 9.90985 18.2974 10.3926 19.84 10.39V7.3C19.84 7.3 17.96 7.39 16.6 5.82Z" />
  </symbol>

  <symbol id='spotify' width="24" height="24" viewBox="0 0 24 24"
    xmlns="http://www.w3.org/2000/svg">
    <path d="M17.9 10.9C14.7 9 9.35 8.8 6.3 9.75C5.8 9.9 5.3 9.6 5.15 9.15C5 8.65 5.3 8.15 5.75 8C9.3 6.95 15.15 7.15 18.85 9.35C19.3 9.6 19.45 10.2 19.2 10.65C18.95 11 18.35 11.15 17.9 10.9ZM17.8 13.7C17.55 14.05 17.1 14.2 16.75 13.95C14.05 12.3 9.95 11.8 6.8 12.8C6.4 12.9 5.95 12.7 5.85 12.3C5.75 11.9 5.95 11.45 6.35 11.35C10 10.25 14.5 10.8 17.6 12.7C17.9 12.85 18.05 13.35 17.8 13.7ZM16.6 16.45C16.4 16.75 16.05 16.85 15.75 16.65C13.4 15.2 10.45 14.9 6.95 15.7C6.6 15.8 6.3 15.55 6.2 15.25C6.1 14.9 6.35 14.6 6.65 14.5C10.45 13.65 13.75 14 16.35 15.6C16.7 15.75 16.75 16.15 16.6 16.45ZM12 2C10.6868 2 9.38642 2.25866 8.17317 2.7612C6.95991 3.26375 5.85752 4.00035 4.92893 4.92893C3.05357 6.8043 2 9.34784 2 12C2 14.6522 3.05357 17.1957 4.92893 19.0711C5.85752 19.9997 6.95991 20.7362 8.17317 21.2388C9.38642 21.7413 10.6868 22 12 22C14.6522 22 17.1957 20.9464 19.0711 19.0711C20.9464 17.1957 22 14.6522 22 12C22 10.6868 21.7413 9.38642 21.2388 8.17317C20.7362 6.95991 19.9997 5.85752 19.0711 4.92893C18.1425 4.00035 17.0401 3.26375 15.8268 2.7612C14.6136 2.25866 13.3132 2 12 2Z"/>
  </symbol>

  <symbol id='apple-music' width="24" height="24" viewBox="0 0 24 24"
    xmlns="http://www.w3.org/2000/svg">
    <path d="M21.995 7.10252C22.0017 6.48827 21.9345 5.87544 21.795 5.27721C21.5308 4.18536 20.91 3.35189 19.9783 2.74096C19.5033 2.43531 18.9712 2.22944 18.4141 2.13586C17.9834 2.06169 17.5478 2.01989 17.1108 2.01084C17.0775 2.00833 17.0416 2.0025 17.0075 2H6.98833C6.86222 2.00778 6.73583 2.015 6.60916 2.02167C5.98666 2.05751 5.3675 2.12419 4.78166 2.35506C3.66833 2.7968 2.865 3.56526 2.39417 4.67211C2.23417 5.04551 2.15083 5.44307 2.09167 5.84564C2.04625 6.17174 2.01843 6.50005 2.00833 6.82914C2.00833 6.85581 2.0025 6.88081 2 6.90665V17.0942L2.0225 17.4476C2.06417 18.1269 2.15083 18.8011 2.43667 19.4254C2.97833 20.6089 3.885 21.3866 5.13166 21.76C5.48166 21.8658 5.845 21.9158 6.20916 21.95C6.67166 21.9942 7.13416 22 7.59833 22H16.79C17.2274 21.9987 17.6643 21.9708 18.0983 21.9167C18.7833 21.8283 19.4283 21.6249 20.0108 21.2415C20.7016 20.7947 21.2462 20.1552 21.5775 19.4021C21.7325 19.052 21.8216 18.6769 21.8858 18.2985C21.98 17.736 22.0008 17.1667 22 16.5983C21.9983 13.4311 22 10.268 21.9975 7.10252H21.995ZM16.6425 10.4281V15.1889C16.6425 15.5364 16.5941 15.8781 16.4391 16.194C16.1975 16.6858 15.8058 16.9958 15.2825 17.1442C14.9914 17.2275 14.6942 17.2756 14.3908 17.2884C13.5992 17.3259 12.9133 16.7883 12.7717 16.0082C12.7122 15.6713 12.7645 15.3243 12.9207 15.02C13.0769 14.7157 13.3283 14.4709 13.6367 14.3229C13.9058 14.1895 14.195 14.1145 14.485 14.0528C14.8 13.9845 15.1167 13.9253 15.43 13.8528C15.6583 13.8003 15.8108 13.6611 15.855 13.4227C15.8657 13.3698 15.8713 13.3159 15.8717 13.2619C15.8717 11.7488 15.8711 10.2367 15.87 8.72529C15.8697 8.67315 15.8624 8.62129 15.8483 8.5711C15.815 8.44607 15.7233 8.36856 15.595 8.37606C15.4616 8.3844 15.33 8.40523 15.1992 8.43107C14.5658 8.55665 13.9325 8.68334 13.2992 8.81114L11.3617 9.20287L10.2167 9.43457L10.1767 9.44541C9.94582 9.50959 9.86249 9.6146 9.85166 9.85381C9.85055 9.88882 9.85055 9.92493 9.85166 9.96216C9.84999 12.1309 9.85166 14.2996 9.84916 16.4674C9.84916 16.8175 9.80999 17.1642 9.66999 17.4901C9.43832 18.0235 9.02833 18.3569 8.47499 18.5178C8.18277 18.6022 7.88416 18.65 7.57916 18.6611C6.77916 18.6911 6.11666 18.161 5.97916 17.3742C5.8625 16.6974 6.17083 15.9698 6.94083 15.6448C7.23833 15.5198 7.54916 15.4514 7.86416 15.3864C8.10333 15.3364 8.34333 15.2897 8.58083 15.2389C8.89971 15.1689 9.06638 14.9705 9.08082 14.6438V14.5188L9.08249 7.11585C9.08249 7.01334 9.09333 6.90749 9.11749 6.80747C9.17583 6.56993 9.34499 6.43407 9.57249 6.37573C9.78499 6.32072 10.0017 6.28238 10.2175 6.23821C10.8286 6.11374 11.4397 5.99039 12.0508 5.86815L13.9425 5.48475L15.6175 5.14886C15.8008 5.11302 15.9858 5.07551 16.17 5.06051C16.4283 5.03967 16.6058 5.2022 16.6316 5.46224C16.6383 5.52337 16.6416 5.58532 16.6416 5.64811C16.6433 7.2406 16.6433 8.83308 16.6416 10.4256L16.6425 10.4281Z" />
  </symbol>

  <symbol id='contact' width="30" height="29" viewBox="0 0 30 29"
    xmlns="http://www.w3.org/2000/svg">
    <path d="M9.5625 5.4375V7.25H20.9716L5.9375 22.2841L7.21592 23.5625L22.25 8.52842V19.9375H24.0625V5.4375H9.5625Z" />
  </symbol>

  <symbol id='news' width="48" height="46" viewBox="0 0 48 46"
    xmlns="http://www.w3.org/2000/svg">
    <path d="M16.1848 2.43115C17.163 2.43115 17.0433 5.59672 17.9866 7.00391C18.249 7.39615 18.1454 8.03061 18.1997 8.55527C18.2447 8.98941 18.4808 9.297 18.8765 9.43864C19.29 9.58699 19.4369 9.20565 19.6228 8.96259C20.1043 8.33149 20.483 7.61574 21.2582 7.24864C21.8968 6.94608 22.3757 7.02654 22.5557 7.7557C22.6847 8.27869 22.7773 8.82095 22.7994 9.35902C22.886 11.4585 22.9327 13.5597 23.0099 15.6591C23.021 15.9533 23.1212 16.2919 23.4786 16.3171C23.8123 16.3414 23.8438 16.0028 23.8794 15.7689C24.1002 14.2997 24.6623 12.9897 25.6328 11.844C26.1185 11.2708 26.4828 10.6103 26.594 9.86692C26.6721 9.34393 27.3642 8.63656 26.0378 8.47313C25.1251 8.35999 25.1183 6.61335 26.0294 5.84312C26.555 5.39976 27.2139 4.74603 27.9025 5.45005C28.5809 6.14317 28.2209 7.69033 27.2504 8.5561C26.7868 8.97013 27.8422 8.87626 28.0587 9.28946C28.6302 10.3798 28.3534 11.2884 27.7055 12.2153C27.1408 13.0241 26.4454 13.7709 26.2646 14.7925C26.0778 15.8502 26.4047 16.7847 27.4142 17.1359C28.4561 17.498 29.0573 16.6749 29.34 15.8159C29.6516 14.8696 29.8418 13.8748 29.987 12.8867C30.1526 11.7594 30.6994 10.9087 31.6165 10.2583C32.6566 9.52078 32.9683 9.07322 31.8831 8.45553C31.1817 8.05575 31.7506 7.31821 32.221 7.12209C33.4862 6.59324 33.1296 5.25728 33.6696 4.24232C33.9159 3.77884 34.2046 2.96252 34.6385 3.17875C35.0664 3.39247 34.7701 4.1979 34.4788 4.70915C34.0135 5.52631 33.9142 6.38203 34.3438 7.2302C34.7616 8.05575 34.4805 8.63656 33.7223 8.97684C33.0218 9.29113 32.4851 9.45792 32.8316 10.4838C33.2374 11.6848 32.3679 12.8079 31.8228 13.8848C31.4314 14.6576 31.0102 15.4613 31.5604 16.3321C31.8508 16.7906 32.2321 16.9398 32.6498 16.452C33.8649 15.0331 35.0749 13.6099 36.2934 12.1935C36.4411 12.0217 36.5863 11.7753 36.8589 11.8843C36.8979 11.9002 36.8376 12.3025 36.7391 12.4802C36.481 12.9436 36.0913 13.3501 35.9104 13.8362C35.6115 14.6383 36.2985 14.8202 36.8478 14.9149C38.0697 15.1253 39.2491 14.6081 40.465 14.6182C41.0288 14.6232 41.6665 14.697 41.619 15.4035C41.5816 15.9583 40.9422 15.872 40.5312 15.903C39.3765 15.9894 38.2183 16.0531 37.061 16.0715C35.8111 16.0916 35.0307 16.7596 34.4347 17.7544C33.6025 19.1432 32.6855 20.4423 31.1851 21.2469C30.0312 21.8654 30.0091 23.8056 30.0091 23.8056C30.0091 23.8056 30.0635 24.1694 30.4167 24.8021C30.7249 25.3545 31.597 25.8682 31.8738 25.3779C32.1633 24.865 32.2465 24.2817 32.1293 23.7109C32.0385 23.2692 31.974 22.8879 32.4291 22.6122C33.0413 22.2417 33.7758 21.7849 34.3948 22.1294C35.0698 22.5049 34.8295 23.3547 34.641 23.9967C34.3319 25.0486 33.6569 25.973 33.5414 27.1019C33.4786 27.7196 33.5355 28.308 34.1426 28.5753C34.6656 28.8058 35.0299 28.3524 35.3483 28.0054C36.0471 27.2436 36.7128 26.496 37.6944 26.0099C39.1277 25.3008 38.8245 23.8081 39.0198 22.5594C39.0513 22.3582 38.9884 22.0565 39.3213 22.0514C39.6337 22.0464 39.5667 22.3456 39.6151 22.525C39.8681 23.4595 40.0702 24.4124 41.2343 24.6915C42.3942 24.9698 43.2577 24.5214 44.0168 23.6967C44.3403 23.3447 44.9254 22.9348 45.2404 23.3128C45.5639 23.7025 44.9865 24.1149 44.6027 24.3688C44.2902 24.5759 43.943 24.8214 43.588 24.8642C41.0093 25.1743 39.4104 27.081 37.6112 28.5544C35.7211 30.1016 35.806 31.1408 37.5339 32.8757C38.22 33.5647 38.833 34.2636 39.1319 35.1956C39.6202 36.7193 40.6501 37.6547 42.2235 38.0544C42.4774 38.119 43.0429 38.1416 42.885 38.6126C42.7109 39.1314 42.1785 39.4709 41.6623 39.2529C39.9123 38.5154 38.1954 37.86 36.2034 38.0771C35.575 38.1458 35.5079 37.2901 35.682 36.7277C35.9996 35.701 36.1456 34.6827 35.7211 33.6602C35.339 32.7383 34.7803 32.0586 33.6119 32.3184C32.5641 32.5522 32.2236 33.3761 32.1726 34.2511C32.1268 35.0406 32.3611 35.8443 32.4486 36.6447C32.5225 37.3186 32.4503 37.9765 31.8653 38.4257C31.5706 38.652 31.1936 38.6453 30.8727 38.4148C30.2528 37.9706 30.2061 37.3923 30.4192 36.7067C30.5806 36.188 29.2611 36.4478 28.6463 36.2676C28.0613 36.0966 27.551 36.2986 27.3726 36.9205C26.9362 38.4425 27.1273 38.1743 25.2923 38.5338C24.3702 38.7149 24.1749 39.8346 24.0153 40.7389C23.9117 41.3273 23.7784 41.9131 23.6103 42.4864C23.5321 42.7529 23.3734 43.1561 23.0447 43.0546C22.6694 42.939 22.7569 42.5023 22.8588 42.2115C23.1993 41.2393 23.6204 40.2939 23.938 39.315C24.3524 38.0402 23.6408 37.0076 22.9454 36.0882C22.4954 35.4932 22.002 36.1142 21.6802 36.4821C21.0578 37.1945 20.3454 37.4393 19.47 37.0311C18.6107 36.6313 18.097 36.022 18.3314 35.0054C18.5479 34.0633 18.4375 33.1188 18.3144 32.1776C18.2677 31.8222 18.0333 31.585 17.6809 31.5314C17.0993 31.4425 16.8149 31.8985 16.6331 32.2882C15.7102 34.2678 14.0442 35.4781 12.2484 36.5785C11.7949 36.8559 11.395 37.218 10.9713 37.5424C9.77661 38.4567 9.27988 39.7256 9.06591 41.1496C9.03449 41.36 8.95382 41.6893 8.64305 41.6215C8.35945 41.5594 8.45794 41.2552 8.47323 41.0448C8.65069 38.6495 8.19727 37.9706 5.90128 37.2146C3.88126 36.5492 2.86658 35.3993 3.2249 34.1446C3.49577 33.1984 4.08674 32.7617 5.10652 33.1221C6.03375 33.4498 6.92616 33.8848 7.94169 33.9267C8.5522 33.9519 9.08374 33.8429 9.23488 33.1908C9.38602 32.538 9.08204 31.9873 8.46474 31.7711C7.68611 31.4979 6.85993 31.3529 6.04988 31.1702C3.85069 30.6732 2.47684 28.6055 2.92517 26.4482C3.17226 25.2589 3.30896 24.0805 2.72732 22.9315C2.63732 22.7538 2.68232 22.5107 2.66449 22.2979C2.8963 22.323 3.14678 22.2995 3.35566 22.3808C4.94604 23.0002 10.5366 21.9048 11.3177 20.3903C11.8128 19.4298 10.9713 18.5012 11.0222 17.4963C11.0893 16.1754 10.489 15.1772 9.03619 14.8906C8.94194 14.8721 8.87316 14.7263 8.79249 14.64C8.88929 14.5981 8.98524 14.5243 9.08459 14.5193C9.67641 14.4858 10.2801 14.5327 10.8601 14.4347C13.1849 14.0391 15.2211 11.6437 15.6677 8.85112C15.7671 8.23259 15.9369 7.6501 16.268 7.08689C16.6365 6.46081 16.7817 5.74506 15.9895 5.25057C14.1707 4.11577 14.141 3.80063 15.7611 2.43367H16.1857L16.1848 2.43115ZM8.84089 24.4485C7.79225 24.5256 6.82087 24.7276 6.38782 25.8649C5.92591 27.0776 6.66718 27.6501 7.53836 28.318C9.52188 29.8384 11.6625 29.4101 13.8302 29.0422C14.8254 28.8729 15.8503 28.7614 16.7902 29.1671C17.5672 29.5023 17.9263 29.3414 18.1709 28.5703C18.4095 27.8177 18.5615 26.9234 19.0752 26.3996C19.7485 25.7132 19.4454 25.4483 18.913 25.0494C18.2931 24.5851 18.3381 23.9456 18.8103 23.5282C19.4955 22.9239 20.3862 22.9575 21.1028 23.5056C21.6751 23.9431 21.1453 24.3001 20.9118 24.839C20.7623 25.1827 20.41 25.6503 20.8889 26.0057C21.541 26.4901 21.597 27.1053 21.5104 27.8294C21.2947 29.6347 20.5518 31.3931 21.096 33.2705C21.2693 33.868 21.3287 34.5268 22.0453 34.6391C22.7289 34.7464 22.8019 34.0801 22.9632 33.6334C23.1135 33.2177 23.173 32.7693 23.2604 32.3335C23.848 29.4143 24.5417 26.5454 26.6314 24.2264C27.3234 23.4586 28.5478 22.1244 27.3964 21.6919C25.5581 21.0021 25.4613 20.2587 24.5986 18.559C24.3651 18.0989 24.1019 17.3773 23.4752 17.5524C22.6058 17.7963 22.5149 18.6244 22.5905 19.4214C22.6024 19.5446 22.6941 19.6653 22.6847 19.7835C22.6643 20.0542 22.6049 20.3216 22.5616 20.5906C22.3052 20.5454 22.0148 20.563 21.7991 20.4456C20.3565 19.6678 19.7426 18.5523 20.2707 16.9037C20.4592 16.3137 20.8693 14.5344 20.2673 14.0961C19.7324 13.7063 19.0438 15.2879 18.6175 15.5778C18.3993 15.7262 18.3101 15.5569 18.204 15.4396C17.8813 15.0817 18.097 13.3837 17.3804 13.5379C16.6671 13.6912 16.482 15.3842 16.2527 15.8804C15.7127 17.0504 15.6804 18.4794 14.4917 19.3192C13.9797 19.6804 13.3072 19.9327 13.6248 20.7624C13.9559 21.6274 14.2735 21.4882 15.0691 21.3231C17.1452 20.8915 16.3563 21.8302 16.7885 23.9565C16.9702 24.8524 17.3651 25.9772 16.4761 26.5697C15.531 27.1992 14.5265 26.4826 13.6502 25.9864C12.155 25.1391 10.579 24.575 8.84004 24.451L8.84089 24.4485ZM24.6334 31.984C24.7098 32.3108 24.7404 32.6679 24.8771 32.9796C25.0852 33.4557 25.2737 34.0206 25.9461 34.0206C26.611 34.0206 26.7384 33.4347 26.9727 32.9914C27.1222 32.7081 27.196 32.3821 27.3701 32.1172C27.4966 31.9245 27.7284 31.6772 27.9186 31.673C28.2345 31.6646 28.0901 32.0217 28.1368 32.2128C28.2532 32.6913 27.5968 34.5972 28.0816 34.8109C28.3474 34.9283 30.066 33.9485 30.2078 33.7155C31.0238 32.3737 31.5452 29.1084 31.6114 27.5227C31.6377 26.8924 30.7937 26.5521 30.2613 26.2839C30.1832 26.2445 29.7518 27.7691 29.6202 27.8914C29.4275 28.0716 29.4088 28.6038 29.0641 28.4102C28.6922 28.2007 28.3415 27.8051 28.4383 27.2754C28.4858 27.0173 28.6225 26.7751 28.6709 26.5169C28.7533 26.0752 28.9588 25.5489 28.4128 25.2832C27.8736 25.0217 27.3845 25.3008 27.0916 25.7425C25.8324 27.6392 24.9951 29.7043 24.6334 31.9831V31.984Z" />
  </symbol>

  <symbol id='favicon' width="90" height="88" viewBox="0 0 90 88"
    xmlns="http://www.w3.org/2000/svg">
    <path d="M49.7663 46.495C45.8482 50.9002 44.5459 56.3499 43.4442 61.8951C43.2802 62.723 43.1688 63.5748 42.887 64.3644C42.5845 65.213 42.4492 66.4803 41.166 66.2765C39.8222 66.0616 39.7108 64.8118 39.386 63.6766C38.3655 60.1104 39.7586 56.7702 40.1629 53.3409C40.3253 51.9638 40.2203 50.7952 38.9975 49.8765C38.0996 49.1999 38.7603 48.3115 39.0389 47.6604C39.4784 46.6367 40.4718 45.9584 39.3988 45.1274C38.0534 44.0862 36.3834 44.0225 35.1001 45.1704C34.2134 45.9632 34.129 47.178 35.2912 48.06C36.2894 48.8178 36.8578 49.3193 35.5953 50.6248C34.6337 51.6183 34.3487 53.3186 33.9013 54.7467C33.4412 56.213 32.7678 56.5171 31.311 55.8818C29.5486 55.1113 27.6269 55.323 25.761 55.6446C21.6949 56.3435 17.6813 57.1571 13.9638 54.2691C12.3303 53.0002 10.9388 51.9128 11.8049 49.6091C12.6185 47.4486 14.4382 47.0649 16.4044 46.9169C19.665 47.1525 22.6199 48.224 25.4235 49.8336C27.0665 50.7777 28.9516 52.1389 30.7219 50.9432C32.3888 49.8176 31.6485 47.6827 31.3078 45.9791C30.4975 41.94 31.9765 40.1585 28.0839 40.9784C26.5921 41.2921 25.9967 41.5564 25.3758 39.9133C24.7803 38.3372 26.0412 37.8596 27.0013 37.1718C29.2318 35.5765 29.2923 32.8636 30.3048 30.6395C30.7347 29.6954 31.0818 26.4794 32.4191 26.1896C33.7628 25.8967 33.3568 29.1238 33.9634 29.8021C34.1608 30.025 34.328 30.3466 34.7372 30.0648C35.5364 29.5139 36.8275 26.5097 37.8321 27.25C38.9593 28.0826 38.192 31.4642 37.8385 32.5834C36.8482 35.7166 37.9993 37.8341 40.7043 39.3131C41.1102 39.5344 41.6547 39.501 42.1339 39.587C42.2167 39.0759 42.3282 38.568 42.3664 38.0538C42.3823 37.8309 42.2104 37.6 42.1881 37.3676C42.0464 35.8519 42.2183 34.2806 43.847 33.8173C45.022 33.4829 45.5155 34.8537 45.9533 35.7278C47.5709 38.9565 47.7524 40.3687 51.1992 41.6789C53.3597 42.5005 51.0639 45.035 49.7663 46.495Z" fill="#C6510F"/>
    <path d="M59.0959 52.7598C58.9717 55.7704 57.9942 61.9731 56.4642 64.522C56.1999 64.9646 52.9776 66.8258 52.4792 66.6029C51.5686 66.1969 52.8008 62.5765 52.5811 61.6675C52.4936 61.3029 52.7642 60.6262 52.1736 60.6406C51.8153 60.6501 51.3823 61.1198 51.1451 61.486C50.8187 61.9891 50.6802 62.6084 50.4 63.1449C49.9606 63.9887 49.7218 65.1016 48.4752 65.1016C47.2286 65.1016 46.8624 64.0285 46.4723 63.1226C46.216 62.5304 46.1587 61.8537 46.0154 61.2328C46.6936 56.9024 48.2634 52.9795 50.6245 49.3766C51.1737 48.5392 52.0908 48.0075 53.1017 48.5042C54.1239 49.0073 53.7402 50.0087 53.5841 50.8477C53.4934 51.3381 53.2371 51.7982 53.1479 52.2885C52.9664 53.2947 53.6239 54.0462 54.3213 54.4442C54.9677 54.8136 55.0011 53.8026 55.3641 53.4587C55.6093 53.2263 56.4196 50.3319 56.5645 50.4067C57.5611 50.9146 59.1453 51.5626 59.0959 52.7598Z" fill="#C6510F"/>
    <path d="M88.7021 41.6264C87.6116 40.297 86.002 39.5344 84.2873 39.5344C81.8928 39.5344 80.097 40.9625 79.1385 41.9528C79.0589 41.4863 78.8949 40.8447 78.5176 40.1665C77.5656 38.4486 75.8031 37.4233 73.8019 37.4233H73.7159C71.7497 37.4552 70.0414 38.4438 69.0862 40.0837C68.6977 39.5408 68.2201 39.0584 67.666 38.6524C68.0927 38.0092 68.4923 37.3596 68.876 36.7117C69.2072 36.1497 69.4125 35.9841 69.4539 35.9538C69.4746 35.9491 69.5304 35.9395 69.6322 35.9363C71.6844 35.9045 73.9054 35.7946 76.4224 35.6036C76.475 35.6004 76.5307 35.6004 76.588 35.5988C77.1866 35.5813 78.1881 35.5526 79.2834 35.1355C81.4375 34.3156 82.8703 32.3685 83.0232 30.0584C83.141 28.2832 82.5742 26.6275 81.4279 25.392C79.5206 23.3366 76.8539 23.3128 75.9783 23.3064C75.9416 23.3048 75.905 23.3048 75.8668 23.3048H75.7824C74.9179 23.3048 74.1872 22.703 73.9738 21.8656C73.934 21.7127 73.8879 21.5615 73.8353 21.4102C73.3593 20.0745 72.3356 19.0046 71.0253 18.4729C70.5429 18.277 70.0446 18.1513 69.5383 18.0955C69.4062 18.0812 69.325 17.9427 69.3696 17.8169C69.3696 17.8169 69.3696 17.8153 69.3696 17.8137C69.8217 16.5369 70.1035 14.507 68.9015 12.0616C68.9222 12.009 68.9556 11.9342 69.0129 11.8323C69.8997 10.2546 70.8056 7.87441 70.0828 5.50381C69.6275 4.00885 68.6165 2.80047 67.233 2.10314C66.4576 1.71149 65.5963 1.50452 64.7414 1.50452C63.646 1.50452 61.5716 1.84681 59.9699 4.13622C59.5226 4.77623 59.2089 5.43376 58.9781 5.91297C58.9176 6.03875 58.8555 6.1693 58.8205 6.23617C58.1343 7.54326 57.8843 8.80577 57.7028 9.72759C57.6917 9.7849 57.6789 9.84858 57.6662 9.91227C57.6169 9.94092 57.5691 9.97117 57.5213 10.003C57.1774 9.01911 56.6393 8.13233 55.9245 7.3936C54.619 6.04352 52.9298 5.30002 51.169 5.30002C48.5627 5.30002 46.7796 6.84593 45.8228 7.6754C45.7654 7.72476 45.7097 7.77411 45.654 7.82028C45.0108 8.37114 44.4615 9.0223 44.0142 9.74032C43.1385 9.25633 42.1371 8.99205 41.0593 8.99205C39.9814 8.99205 38.8893 9.26111 37.7828 9.79286C37.5965 9.88202 37.4166 9.97595 37.2447 10.0731C35.9232 8.09252 35.1909 6.86663 35.3183 5.57545L35.3995 4.74121C35.6414 2.28464 33.7119 0.157623 31.2441 0.157623H29.6107C29.0232 0.157623 28.4453 0.2627 27.9024 0.463302C27.3595 0.663903 26.85 0.960029 26.4042 1.34054C24.8217 2.69221 22.467 4.70459 22.467 7.82187C22.467 7.97153 22.4718 8.12277 22.4829 8.27721C22.6469 10.5714 23.9938 12.1268 25.4235 13.2572C25.0319 14.2586 24.7453 15.3365 24.5606 16.513C24.2931 18.2086 23.5544 19.8389 22.4814 21.1061C21.5866 22.1633 20.5295 22.8638 19.5822 23.0262C19.2781 23.0787 18.7734 23.0835 18.2401 23.0883C17.8118 23.0915 17.3262 23.0946 16.812 23.1249C15.6593 23.1902 14.8091 23.6153 14.4286 23.8206L13.2203 24.3492C10.7748 25.4223 10.1125 28.5841 11.9211 30.5471L12.7729 31.4706C12.9767 31.7412 13.1932 31.9864 13.4209 32.2093C14.7359 33.4877 17.4806 36.5477 15.4444 37.1208C15.4237 37.1272 15.4571 37.1638 15.4635 37.1845C14.911 37.4154 14.954 37.3787 13.9399 37.643C12.1838 38.1015 10.2256 38.3865 8.82931 38.3865C8.37079 38.3865 8.11447 38.3547 8.01576 38.3388C7.01912 37.9758 6.13393 37.9423 5.65949 37.9232L5.48118 37.9089L4.04035 37.7497C1.76527 37.5013 -0.173874 39.3864 0.0123987 41.6678L0.130212 43.1325V43.1755C0.125436 43.7486 0.112699 44.9411 0.759082 46.2355C1.10297 46.9248 1.09023 47.8689 0.71132 49.7189C0.041056 52.9843 0.669926 56.3085 2.48171 59.0803C2.7635 59.5102 3.07078 59.9209 3.39874 60.311C2.4626 61.2678 1.77642 62.5049 1.3577 63.9887C0.579177 66.7477 1.25263 69.6278 3.20769 71.8917C4.68195 73.5969 6.81852 74.9262 9.56167 75.8433C10.3482 76.1044 10.8067 76.3002 11.0662 76.4276C11.0837 76.7125 11.0869 77.2013 11.0296 78.0101V78.0212C10.977 78.4224 10.8704 79.2567 11.0932 80.2613C11.5502 82.323 13.1215 83.8896 15.1944 84.3513C15.5972 84.4405 16.008 84.4866 16.414 84.4866C18.7877 84.4866 21.4163 82.9009 21.94 79.3602C22.2855 77.0278 23.002 76.1935 23.6563 75.6857C23.9508 75.458 24.2183 75.2383 24.4794 75.0249C24.9077 74.6747 25.3121 74.3435 25.6289 74.1477C27.135 73.2116 28.6443 72.2022 30.0596 71.0336C30.2093 71.368 30.3733 71.6673 30.5341 71.9284C31.4033 73.3326 32.7248 74.4598 34.4617 75.2781C35.651 75.8401 36.8721 76.1251 38.0869 76.1251C38.4817 76.1251 38.9195 76.0948 39.3892 76.0136C39.3319 76.1633 39.2746 76.3129 39.2157 76.4658C38.8956 77.2937 38.5645 78.1486 38.2556 79.0418C37.4532 81.363 37.9117 83.0936 38.4387 84.138C39.1265 85.5008 40.3174 86.5054 41.7948 86.9671C42.3377 87.1374 42.8965 87.2234 43.4585 87.2234C45.3595 87.2234 47.1299 86.2236 48.1934 84.5487C48.5611 83.9708 48.8477 83.3181 49.069 82.5539C49.4224 81.3391 49.7186 80.0448 49.9526 78.7058V78.6963C49.9781 78.5578 50.0067 78.3906 50.0386 78.2171C51.282 77.9862 52.6368 77.6439 53.8627 76.5119C53.885 76.4912 53.9073 76.4706 53.9296 76.4499C54.3372 76.8829 54.7352 77.2093 55.0457 77.4353C56.1967 78.2712 57.5357 78.7138 58.916 78.7138C60.2963 78.7138 61.7005 78.2457 62.8405 77.3573C63.2146 77.0676 63.5999 76.7157 63.9661 76.2938C65.0136 77.2252 66.3653 77.7426 67.8109 77.7426C68.0338 77.7426 68.2583 77.7299 68.4812 77.706C68.7837 77.6726 69.0925 77.6551 69.3966 77.6551C71.573 77.6551 73.7828 78.5243 76.2394 79.5735C77.0529 79.9206 77.9094 80.0973 78.7851 80.0973C81.6572 80.0973 84.2157 78.198 85.1534 75.3704C85.6772 73.7895 85.5212 72.1576 84.714 70.7741C83.4196 68.5548 81.1668 68.1122 80.4265 67.9657C80.417 67.9641 80.4074 67.9625 80.3979 67.9609C79.1194 67.6186 78.524 67.0582 78.1387 65.8371C77.2678 63.086 75.6137 61.1468 73.9563 59.4592C73.7127 59.2125 73.5185 59.0023 73.3657 58.8256C73.4707 58.7301 73.5933 58.625 73.7318 58.5088C74.4785 57.8894 75.1838 57.2574 75.8668 56.6444C78.4635 54.3121 80.1686 52.868 82.3848 52.599C84.187 52.3793 85.5323 51.4718 86.3363 50.9289L86.4446 50.8557C87.2899 50.2873 89.5348 48.7796 89.9392 46.0285C90.1732 44.4444 89.7338 42.8794 88.7021 41.6232V41.6264ZM83.4578 46.7624C82.8719 47.1557 82.2208 47.6222 81.5553 47.7034C76.7202 48.2908 73.7239 51.9144 70.3487 54.7133C66.8047 57.6522 66.9639 59.6264 70.2038 62.922C71.4902 64.2307 72.6397 65.5585 73.2001 67.3289C74.1155 70.2233 76.0467 72 78.9968 72.7594C79.4729 72.882 80.5332 72.925 80.2355 73.8213C79.9091 74.8052 78.9125 75.45 77.9445 75.0377C74.6632 73.6367 71.444 72.3917 67.7074 72.804C66.5293 72.933 66.4051 71.3074 66.7315 70.2392C67.3269 68.2889 67.5992 66.3561 66.8047 64.4138C66.0883 62.6625 65.0391 61.3697 62.85 61.8649C60.8854 62.309 60.247 63.8741 60.1514 65.5362C60.0655 67.0359 60.5049 68.5627 60.6689 70.0832C60.809 71.3616 60.6736 72.613 59.5767 73.4663C59.0227 73.8962 58.3174 73.8834 57.714 73.4456C56.5518 72.6018 56.4642 71.5049 56.8638 70.201C57.1679 69.2155 54.6922 69.709 53.5396 69.3683C52.4442 69.0419 51.4874 69.4256 51.1514 70.6085C50.3331 73.4997 50.6913 72.9903 47.2509 73.6733C45.5235 74.0172 45.1557 76.1442 44.8564 77.862C44.6621 78.9797 44.4122 80.0925 44.097 81.1815C43.9489 81.6878 43.6512 82.4536 43.0366 82.2609C42.3313 82.0396 42.4953 81.2118 42.688 80.6577C43.3264 78.8125 44.1145 77.015 44.7115 75.1571C45.4884 72.7355 44.1543 70.7741 42.8504 69.026C42.0066 67.8956 41.0816 69.0754 40.4782 69.7743C39.3112 71.1275 37.9754 71.5924 36.334 70.8187C34.7228 70.0577 33.7596 68.9018 34.199 66.9706C34.605 65.1811 34.398 63.3853 34.1672 61.599C34.0812 60.9239 33.6402 60.4718 32.9795 60.3699C31.8873 60.2011 31.3556 61.0672 31.0149 61.8075C29.2827 65.568 26.159 67.867 22.7918 69.9574C21.9432 70.4859 21.1918 71.1737 20.3973 71.7899C18.1589 73.5268 17.2259 75.9372 16.8247 78.6406C16.7658 79.0418 16.6146 79.6658 16.0335 79.5369C15.5017 79.4191 15.6848 78.8412 15.715 78.4415C16.0478 73.8914 15.196 72.6018 10.8926 71.1642C7.1035 69.9001 5.20097 67.7173 5.87442 65.334C6.38229 63.5349 7.49038 62.7055 9.40246 63.3917C11.141 64.0142 12.8143 64.8389 14.7184 64.92C15.8647 64.9694 16.8597 64.7608 17.1431 63.5222C17.4265 62.282 16.8566 61.236 15.6991 60.8252C14.2376 60.3062 12.6901 60.0308 11.1713 59.6837C7.04619 58.7396 4.4718 54.812 5.31242 50.7156C5.77571 48.4548 6.03203 46.2179 4.94146 44.0336C4.7743 43.6977 4.85708 43.2344 4.82365 42.83C5.25829 42.8778 5.72795 42.8332 6.1196 42.9876C9.10155 44.1642 19.5854 42.0833 21.0501 39.2064C21.9783 37.3819 20.3989 35.6179 20.4944 33.709C20.6218 31.1999 19.4962 29.3021 16.7706 28.7592C16.5939 28.7242 16.4649 28.4472 16.3137 28.2832C16.4952 28.2036 16.6751 28.0635 16.8613 28.054C17.971 27.9903 19.103 28.0794 20.1888 27.8916C24.5495 27.1417 28.3657 22.5916 29.2031 17.2852C29.3894 16.1102 29.7078 15.0037 30.3303 13.9338C31.0197 12.7462 31.2935 11.3849 29.8065 10.4456C26.3963 8.28994 26.3405 7.69132 29.3782 5.09465H30.1743C32.0083 5.09465 31.7838 11.1079 33.5526 13.781C34.0462 14.5261 33.8504 15.7313 33.9523 16.7279C34.035 17.5526 34.4792 18.1353 35.2211 18.4044C35.9965 18.6862 36.2719 17.9634 36.6206 17.5001C37.5233 16.3013 38.2333 14.9416 39.6869 14.2443C40.8842 13.6696 41.7821 13.8224 42.118 15.2075C42.3616 16.201 42.5335 17.231 42.5749 18.2516C42.7373 22.2397 42.8249 26.231 42.9698 30.2208C42.9905 30.7796 43.1783 31.4212 43.8502 31.4706C44.4759 31.5151 44.5348 30.8735 44.6001 30.4277C45.014 27.6384 46.0679 25.1484 47.8877 22.9721C48.7984 21.8847 49.4813 20.6301 49.6899 19.2164C49.8364 18.2229 51.1339 16.8792 48.6471 16.5687C46.9356 16.3538 46.9229 13.0343 48.6312 11.5728C49.6167 10.7306 50.8521 9.48877 52.1449 10.8245C53.417 12.1412 52.7419 15.0817 50.9222 16.7248C50.0529 17.5112 52.0319 17.3329 52.4378 18.1178C53.5093 20.1907 52.9903 21.9149 51.7771 23.6758C50.7168 25.2121 49.4145 26.6291 49.0754 28.5714C48.7235 30.5806 49.3381 32.3557 51.231 33.0228C53.1845 33.7106 54.3101 32.1472 54.8419 30.5153C55.4262 28.7179 55.7812 26.8281 56.055 24.951C56.3655 22.8097 57.3908 21.1953 59.1102 19.9599C61.0605 18.5588 61.6432 17.7087 59.6101 16.5353C58.2951 15.7759 59.3618 14.3749 60.2438 14.0007C62.616 12.9977 61.9489 10.4583 62.9599 8.53034C63.4216 7.64834 63.9629 6.09925 64.7764 6.51C65.5788 6.91439 65.0232 8.44597 64.4771 9.41713C63.6062 10.9694 63.42 12.5965 64.2256 14.2077C65.0312 15.8189 64.4819 16.8792 63.0602 17.5256C61.7451 18.1226 60.7405 18.441 61.3885 20.3881C62.1495 22.6696 60.5192 24.8029 59.4971 26.8488C58.7631 28.3167 57.9735 29.8435 59.0051 31.4976C59.5496 32.3685 60.2645 32.6519 61.0478 31.7253C63.326 29.0299 65.5947 26.3266 67.8794 23.636C68.1564 23.3096 68.4286 22.8415 68.9397 23.0485C69.0129 23.0771 68.8999 23.8429 68.7152 24.1804C68.2312 25.0593 67.5005 25.833 67.1613 26.7548C66.6009 28.28 67.8873 28.6239 68.919 28.8038C71.21 29.2034 73.4214 28.2211 75.7012 28.2402C76.7584 28.2498 77.954 28.3899 77.8665 29.7336C77.7964 30.786 76.5976 30.6236 75.8254 30.6809C73.6618 30.8465 71.4902 30.9675 69.3186 31.0025C66.9751 31.0407 65.512 32.3096 64.3943 34.1978C62.8341 36.8358 61.1146 39.3036 58.3015 40.832C56.1378 42.0069 56.0964 45.6926 56.0964 45.6926C56.0964 45.6926 56.1983 46.3835 56.8606 47.5839C57.4401 48.6347 59.0736 49.6091 59.5926 48.6777C60.1355 47.7049 60.29 46.5953 60.0718 45.5111C59.9015 44.672 59.7805 43.9476 60.6322 43.4239C61.7801 42.7202 63.1573 41.8525 64.3195 42.5068C65.5852 43.2201 65.1346 44.8328 64.7812 46.054C64.2017 48.052 62.936 49.8081 62.7195 51.9526C62.6001 53.126 62.7083 54.2436 63.8451 54.7515C64.8258 55.1893 65.5088 54.328 66.1058 53.6689C67.4161 52.2217 68.6643 50.8015 70.5047 49.8781C73.1921 48.5312 72.6238 45.6957 72.9899 43.3236C73.0488 42.9415 72.9326 42.3683 73.5551 42.3588C74.141 42.3492 74.0152 42.9176 74.106 43.2583C74.5804 45.0334 74.9609 46.8436 77.1421 47.3738C79.3168 47.9024 80.9376 47.0522 82.3593 45.4856C82.9659 44.8169 84.0644 44.0368 84.6535 44.7564C85.2601 45.4967 84.1775 46.28 83.4578 46.7624Z" fill="#C6510F"/>
  </symbol>

  <symbol id='burger' width="61" height="61" viewBox="0 0 61 61"
    xmlns="http://www.w3.org/2000/svg">
    <line y1="21.375" x2="61" y2="21.375" stroke="#F4F5F0" stroke-width="3"/>
    <line y1="36.625" x2="61" y2="36.625" stroke="#F4F5F0" stroke-width="3"/>
  </symbol>

  <symbol id='exit' width="42" height="43" viewBox="0 0 42 43"
    xmlns="http://www.w3.org/2000/svg">
    <path d="M2.35701 42.5L0 40.143L18.643 21.5L0 2.85701L2.35701 0.5L21 19.143L39.643 0.5L42 2.85701L23.357 21.5L42 40.143L39.643 42.5L21 23.857L2.35701 42.5Z"/>

  </symbol>

</svg>